<?xml version="1.0" encoding="UTF-8"?>
<svg width="366px" height="79px" viewBox="0 0 366 79" version="1.1" xmlns="http://www.w3.org/2000/svg" xmlns:xlink="http://www.w3.org/1999/xlink">
    <title>编组 2</title>
    <g id="页面-1" stroke="none" stroke-width="1" fill="none" fill-rule="evenodd">
        <g id="in-pc" transform="translate(-1121.000000, -945.000000)" fill="#242933">
            <g id="Bigbanner" transform="translate(-19.000000, 142.000000)">
                <g id="编组-2" transform="translate(1140.000000, 803.000000)">
                    <path d="M47.264,78.624 L47.264,14.112 L80.304,14.112 L80.304,1.344 L5.68434189e-12,1.344 L5.68434189e-12,14.112 L32.928,14.112 L32.928,78.624 L47.264,78.624 Z M159.152,78.624 L159.152,65.968 L105.952,65.968 L105.952,62.048 C105.952,58.3893333 106.922667,55.664 108.864,53.872 C110.805333,52.08 114.538667,50.4373333 120.064,48.944 L120.064,48.944 L136.752,44.464 C145.04,42.224 150.864,39.76 154.224,37.072 C158.778667,33.4133333 161.056,28.1866667 161.056,21.392 C161.056,13.8506667 158.368,8.4 152.992,5.04 C147.690667,1.68 139.029333,-1.13686838e-13 127.008,-1.13686838e-13 C115.808,-1.13686838e-13 104.794667,1.12 93.968,3.36 L93.968,3.36 L93.968,16.24 C103.376,13.8506667 113.792,12.656 125.216,12.656 C133.205333,12.656 138.693333,13.3653333 141.68,14.784 C144.592,16.128 146.048,18.5546667 146.048,22.064 C146.048,25.1253333 144.741333,27.5146667 142.128,29.232 C140.186667,30.5013333 136.565333,31.8453333 131.264,33.264 L131.264,33.264 L112.336,37.856 C102.181333,40.6186667 95.984,44.6133333 93.744,49.84 C92.1013333,53.3493333 91.3173333,57.7173333 91.392,62.944 L91.392,62.944 L91.392,78.624 L159.152,78.624 Z" id="T2" fill-rule="nonzero"></path>
                    <g id="编组" transform="translate(192.000000, 0.000000)">
                        <path d="M89.9129144,28.2000564 C88.8435266,29.7631429 87.4429931,32.7539304 88.2298438,37.0093411 C89.4055628,43.375534 94.8588331,48.2617178 102.068087,50.9878883 C102.271635,51.061735 102.411385,50.7786563 102.229103,50.6586556 C99.2032211,48.7201821 97.5505308,45.5817014 97.5505308,40.7970567 C97.5505308,31.5939233 104.486361,28.7877523 118.683092,28.7877523 C125.801205,28.7877523 132.089934,29.4769873 136.498121,30.129299 C139.399443,30.5569939 142,28.2646722 142,25.2831154 L142,21.4123225 C138.977157,20.5661634 131.336502,19 118.683092,19 C104.544084,19 94.8102246,21.6892473 89.9129144,28.2000564" id="Fill-1"></path>
                        <path d="M115.036779,51.401337 C125.016064,51.401337 130.588036,50.4513601 132.856056,49.6242508 L132.856056,43.9663439 L124.544071,43.9663439 C121.788734,43.9663439 119.566688,41.7786999 119.566688,39.0846012 L119.566688,35 L140.018706,35 C142.219298,35 144,36.7471185 144,38.9077916 L144,39.1325496 L144,43.9663439 L144,59.0341171 C144,60.43361 142.964067,61 142.056859,61 C141.281442,61 140.63475,60.6853389 139.856267,60.3616874 L133.959417,57.571692 C130.784189,58.7134624 125.923272,61 114.065208,61 C95.4000211,61 86,54.4550484 86,39.1984786 C86,38.5751498 86.027584,37.9727985 86.0704925,37.3764408 C86.928662,40.0255878 88.5499894,42.9054864 91.8018389,45.4587367 C97.0029592,49.5403412 104.977806,51.401337 115.036779,51.401337" id="Fill-3"></path>
                        <path d="M52.8030303,33.2415479 C48.4142992,33.2415479 42.0620265,33.6956553 38.3934659,33.9547098 L39.5075758,27.1461478 L70.4502841,27.1461478 C73.5094697,27.1461478 75.9869792,24.6927493 75.9869792,21.6663832 L75.9869792,18 L32.9737216,18 C31.6410985,18 30.5023674,18.9539301 30.2776989,20.255298 L27.6555398,35.5791339 C26.9322917,39.4039974 28.3080019,42.192643 32.8259943,41.9975902 C41.3387784,41.7385357 45.0750473,41.674534 51.4919508,41.674534 C63.1531723,41.674534 66.9479167,42.1255936 66.9479167,46.6666667 C66.9479167,51.0096392 63.3470644,51.7928982 51.3626894,51.7928982 C42.8468277,51.7928982 32.4966856,50.2324757 27,49.0042526 L27,53.6215182 C27,56.4010206 28.9973958,58.7843221 31.7549716,59.2750018 C36.4545455,60.116167 43.4192708,61 51.4919508,61 C69.8316761,61 79,56.9160819 79,46.6666667 C79,33.9547098 66.6216856,33.2415479 52.8030303,33.2415479" id="Fill-5"></path>
                        <path d="M134.742434,0 L39.1508386,0 C20.2996442,0 0,12.3769815 0,39.5533228 C0,55.1967061 6.77264682,64.4383076 12.4536198,69.4354148 C19.4671667,75.6025765 28.9507019,79 39.1508386,79 L134.742434,79 C153.651566,79 174,66.6565357 174,39.5533228 C174,23.8672812 167.212106,14.5982566 161.515887,9.59200833 C154.487093,3.40656459 144.976113,0 134.742434,0 M134.742434,7.15134802 C150.721123,7.15134802 166.843133,17.1699387 166.843133,39.5533228 C166.843133,61.8635785 150.721123,71.848652 134.742434,71.848652 L39.1508386,71.848652 C23.2300871,71.848652 7.15991658,61.8635785 7.15991658,39.5533228 C7.15991658,17.1699387 23.2300871,7.15134802 39.1508386,7.15134802 L134.742434,7.15134802" id="Fill-7"></path>
                    </g>
                </g>
            </g>
        </g>
    </g>
</svg>