<?xml version="1.0" encoding="UTF-8"?>
<svg width="219px" height="70px" viewBox="0 0 219 70" version="1.1" xmlns="http://www.w3.org/2000/svg" xmlns:xlink="http://www.w3.org/1999/xlink">
    <title>V27</title>
    <g id="页面-1" stroke="none" stroke-width="1" fill="none" fill-rule="evenodd">
        <g id="midbanner-1备份" transform="translate(-362.000000, -451.000000)" fill="#242933" fill-rule="nonzero">
            <path d="M401.704,520.152 C405.416,520.152 408.328,519.352 410.44,517.752 C412.232,516.408 413.832,514.136 415.24,510.936 L415.24,510.936 L440.968,452.76 L427.432,452.76 L404.776,505.56 C403.944,507.352 402.92,508.248 401.704,508.248 C400.36,508.248 399.272,507.352 398.44,505.56 L398.44,505.56 L375.976,452.76 L362.248,452.76 L388.072,510.936 C389.416,514.136 391.048,516.44 392.968,517.848 C395.08,519.384 397.992,520.152 401.704,520.152 Z M506.632,519 L506.632,508.152 L461.032,508.152 L461.032,504.792 C461.032,501.656 461.864,499.32 463.528,497.784 C465.192,496.248 468.392,494.84 473.128,493.56 L473.128,493.56 L487.432,489.72 C494.536,487.8 499.528,485.688 502.408,483.384 C506.312,480.248 508.264,475.768 508.264,469.944 C508.264,463.48 505.96,458.808 501.352,455.928 C496.808,453.048 489.384,451.608 479.08,451.608 C469.48,451.608 460.04,452.568 450.76,454.488 L450.76,454.488 L450.76,465.528 C458.824,463.48 467.752,462.456 477.544,462.456 C484.392,462.456 489.096,463.064 491.656,464.28 C494.152,465.432 495.4,467.512 495.4,470.52 C495.4,473.144 494.28,475.192 492.04,476.664 C490.376,477.752 487.272,478.904 482.728,480.12 L482.728,480.12 L466.504,484.056 C457.8,486.424 452.488,489.848 450.568,494.328 C449.16,497.336 448.488,501.08 448.552,505.56 L448.552,505.56 L448.552,519 L506.632,519 Z M542.152,519 L577.48,466.2 C579.4,463.576 580.36,461.144 580.36,458.904 C580.36,456.984 579.784,455.512 578.632,454.488 C577.352,453.336 575.4,452.76 572.776,452.76 L572.776,452.76 L516.232,452.76 L516.232,463.608 L565.672,463.608 L527.272,519 L542.152,519 Z" id="V27"></path>
        </g>
    </g>
</svg>